# xmcd
# 
# Track frame offsets:
#     150
#     15885
#     31210
#     46855
#     61685
#     75237
#     89777
#     104355
#     120630
#     135000
#     148897
#     160720
#     174537
# 
# Disc length: 2519
# 
# Revision: 1
# Processed by: cddbd v1.5.2PL0 Copyright (c) Steve Scherf et al.
# Submitted via: fre:ac v1.0.17
# 
DISCID=9309d50d
DTITLE=張德蘭 - 張德蘭情歌集
DYEAR=1990
DGENRE=Pop
TTITLE0=相識也是緣份
TTITLE1=情義兩心堅
TTITLE2=何日再相見
TTITLE3=網中人
TTITLE4=情濃恨更濃
TTITLE5=茫茫路
TTITLE6=人生於世
TTITLE7=情若無花不結果
TTITLE8=得失都一笑
TTITLE9=台上台下
TTITLE10=武俠帝女花
TTITLE11=可知道
TTITLE12=春天新希望
EXTD=
EXTT0=
EXTT1=
EXTT2=
EXTT3=
EXTT4=
EXTT5=
EXTT6=
EXTT7=
EXTT8=
EXTT9=
EXTT10=
EXTT11=
EXTT12=
PLAYORDER=
